<svg id="Layer_1" data-name="Layer 1" xmlns="http://www.w3.org/2000/svg" viewBox="0 0 890.87 131"><defs><style>.cls-1{font-size:72px;font-family:Uniform-Bold, Uniform;font-weight:700;}.cls-2{letter-spacing:-0.02em;}.cls-3{letter-spacing:-0.01em;}.cls-4{letter-spacing:-0.03em;}.cls-5{letter-spacing:0.02em;}</style></defs><path d="M176.94,519.86h.31Zm-5.77-110.31-.38.06.39-.05Z" transform="translate(-114 -399.21)"/><path d="M176.94,519.88h.31Zm-5.76-110.3.15.08a.87.87,0,0,1,.15-.13A1.57,1.57,0,0,0,171.18,409.58Z" transform="translate(-114 -399.21)"/><path d="M171.17,464.68l-.38.06.39-.05Z" transform="translate(-114 -399.21)"/><path d="M244.39,455.74a64.88,64.88,0,0,0-4.27-15.87,65.58,65.58,0,0,0-53.37-40.26c-1.69-.18-3.4-.31-5.13-.36-.7,0-1.41,0-2.12,0h-.76q-2.87,0-5.67.3A65.45,65.45,0,0,0,114,464.71a66.89,66.89,0,0,0,.66,9.34A65.53,65.53,0,0,0,173,529.89q2.86.29,5.81.31h.71a65.48,65.48,0,0,0,34.93-10.09,65.46,65.46,0,0,0,30.1-47.62,64.53,64.53,0,0,0,.47-7.79A66.24,66.24,0,0,0,244.39,455.74Zm-54.56-45.56c.22,0,.43.08.65.13l1,.2.53.13,1,.24c.45.11.89.22,1.33.35s1.08.3,1.62.48,1.31.41,2,.64c.49.17,1,.35,1.46.54,1.21.46,2.4,1,3.57,1.52.44.19.86.4,1.29.62s1,.53,1.57.81,1,.53,1.46.82.69.4,1,.61l.84.52c.91.57,1.81,1.18,2.69,1.81a55.56,55.56,0,0,1,19,24.07q.33.81.63,1.62c.22.57.42,1.14.61,1.71.14.41.28.83.4,1.25s.34,1.09.48,1.64c.07.24.14.48.2.73s.06.2.08.3c.22.83.41,1.65.58,2.49A68.39,68.39,0,0,1,216,470.27c0-.35,0-.7,0-1.06A77.75,77.75,0,0,0,188.74,410ZM180,415.72a67.75,67.75,0,0,1,26,53.49q0,3.29-.32,6.56a68.25,68.25,0,0,1-51.28.86A68.11,68.11,0,0,1,180,415.72Zm-54.74,37.15c.12-.59.26-1.17.41-1.75s.3-1.15.46-1.72.29-1,.46-1.5c.09-.3.19-.6.29-.9,0-.12.08-.25.13-.37.1-.32.22-.65.34-1s.33-.9.51-1.34a55.8,55.8,0,0,1,19.51-24.86c.55-.39,1.11-.78,1.68-1.14.41-.28.83-.55,1.26-.82l.32-.19c.39-.24.77-.47,1.17-.69.12-.08.25-.15.38-.22.36-.21.72-.41,1.09-.6l.46-.25c.4-.21.8-.42,1.21-.61l.33-.17c.4-.2.8-.39,1.21-.56l.38-.18c.5-.23,1-.45,1.52-.65s1.11-.45,1.67-.66c1.07-.4,2.14-.77,3.23-1.1l.26-.08c.55-.16,1.09-.32,1.64-.46s1.06-.28,1.59-.4.86-.2,1.29-.29l1-.2,1.1-.2.62-.1.38-.06h0a1.57,1.57,0,0,1,.3,0,.87.87,0,0,0-.15.13A77.76,77.76,0,0,0,144,469.21c0,.78,0,1.56,0,2.33a68,68,0,0,1-19.1-17.07C125,453.94,125.15,453.4,125.27,452.87ZM146,509a55.49,55.49,0,0,1-21.44-36.31q-.28-2-.42-4a78.24,78.24,0,0,0,21.19,14.93,77.58,77.58,0,0,0,14.81,33.14A55.16,55.16,0,0,1,146,509Zm35.31,11.22c-.6,0-1.21,0-1.81,0h-.66c-.42,0-.84,0-1.25,0h-.65a68.15,68.15,0,0,1-20.32-32.2,78.24,78.24,0,0,0,47-.69,67.93,67.93,0,0,1-20.46,32.83C182.52,520.13,181.91,520.16,181.31,520.18Zm53.29-48.85a55.24,55.24,0,0,1-25.51,40.34,54.48,54.48,0,0,1-8.83,4.52,77.45,77.45,0,0,0,14.61-33.7,78.47,78.47,0,0,0,20-14.9C234.86,468.84,234.75,470.09,234.6,471.33Z" transform="translate(-114 -399.21)"/><text class="cls-1" transform="translate(152.23 88.25)">THE G<tspan class="cls-2" x="222.26" y="0">L</tspan><tspan x="263.3" y="0">O</tspan><tspan class="cls-3" x="322.7" y="0">B</tspan><tspan x="371.66" y="0">AL G</tspan><tspan class="cls-4" x="543.52" y="0">O</tspan><tspan x="600.76" y="0">A</tspan><tspan class="cls-5" x="652.6" y="0">L</tspan><tspan x="696.52" y="0">S</tspan></text></svg>